<?xml version="1.0" standalone="no"?>
<!DOCTYPE svg PUBLIC "-//W3C//DTD SVG 20010904//EN"
 "http://www.w3.org/TR/2001/REC-SVG-20010904/DTD/svg10.dtd">
<svg version="1.0" xmlns="http://www.w3.org/2000/svg"
 width="215.000000pt" height="215.000000pt" viewBox="0 0 215.000000 215.000000"
 preserveAspectRatio="xMidYMid meet">
<metadata>
Created by potrace 1.11, written by Peter Selinger 2001-2013
</metadata>
<g transform="translate(0.000000,215.000000) scale(0.100000,-0.100000)"
fill="#000000" stroke="none">
<path d="M318 2128 c-2 -7 -3 -488 -3 -1068 l1 -1055 237 -3 237 -2 -1 427 c0
236 0 435 1 443 0 13 54 15 445 15 245 0 446 2 446 5 1 3 2 85 3 183 l1 177
-447 0 -448 0 0 248 0 248 506 -1 c278 0 511 3 517 7 6 4 10 74 11 197 l1 191
-751 0 c-593 0 -753 -3 -756 -12z"/>
</g>
</svg>
