<?xml version="1.0" encoding="UTF-8"?>
<svg width="116px" height="103px" viewBox="0 0 116 103" version="1.1" xmlns="http://www.w3.org/2000/svg" xmlns:xlink="http://www.w3.org/1999/xlink">
    <!-- Generator: Sketch 48.2 (47327) - http://www.bohemiancoding.com/sketch -->
    <title>g-brains-logo</title>
    <desc>Created with Sketch.</desc>
    <defs></defs>
    <g id="Page-1" stroke="none" stroke-width="1" fill="none" fill-rule="evenodd">
        <g id="g-brains-logo" transform="translate(0.000000, -1.000000)" fill="#EC681D" fill-rule="nonzero">
            <path d="M11.482,103.786 L20.995,75.921 C6.196,65.426 -1.169,50.651 1.224,35.992 C3.127,24.334 10.966,14.379 23.297,7.963 C35.326,1.704 50.26,-0.444 65.351,1.918 C80.44,4.279 93.949,10.876 103.386,20.494 C113.061,30.354 117.341,42.204 115.438,53.863 C112.057,74.576 89.679,88.859 63.088,88.86 C59.234,88.86 55.296,88.561 51.309,87.937 C47.575,87.353 43.861,86.484 40.245,85.348 L11.482,103.786 Z M53.424,7.377 C43.606,7.377 34.262,9.501 26.363,13.61 C15.883,19.063 9.246,27.37 7.674,37.001 C5.587,49.788 12.691,62.872 26.68,72.002 L28.758,73.358 L23.64,88.348 L39.329,78.292 L40.843,78.803 C44.581,80.064 48.449,81.013 52.341,81.622 C56.012,82.196 59.643,82.472 63.182,82.472 C86.574,82.474 106.118,70.428 108.987,52.854 C110.56,43.223 106.897,33.305 98.675,24.926 C90.216,16.305 78.015,10.377 64.32,8.235 C60.658,7.66 57.009,7.377 53.424,7.377 Z" id="Shape"></path>
            <g id="Group" transform="translate(14.000000, 13.000000)">
                <path d="M83.059,43.113 L43.85,33.692 L43.003,36.546 L80.706,45.605 C73.832,56.361 55.682,61.398 37.055,56.922 C15.914,51.842 2.067,36.415 6.188,22.532 C10.308,8.649 30.859,1.486 52,6.566 C62.972,9.202 71.97,14.629 77.521,21.177 C78.642,20.773 79.764,20.372 80.894,19.992 C74.916,12.564 65.029,6.427 52.906,3.514 C29.873,-2.02 7.375,6.141 2.755,21.707 C-1.865,37.273 13.117,54.439 36.15,59.974 C58.203,65.273 79.753,58.012 85.603,43.723 L83.059,43.113 Z" id="Shape"></path>
                <path d="M50.481,63.25 C45.673,63.25 40.69,62.68 35.701,61.481 C24.201,58.718 14.263,53.066 7.718,45.566 C1.058,37.935 -1.299,29.319 1.079,21.305 C5.945,4.908 29.393,-3.749 53.351,2.008 C65.331,4.887 75.881,11.108 82.296,19.078 L83.629,20.735 L81.499,21.453 C80.382,21.829 79.271,22.225 78.163,22.625 L76.94,23.066 L76.141,22.123 C70.633,15.625 61.67,10.504 51.551,8.073 C41.678,5.701 31.658,5.992 23.336,8.893 C15.203,11.727 9.707,16.714 7.861,22.935 C3.988,35.988 17.284,50.558 37.501,55.416 C54.037,59.39 70.566,55.664 77.953,46.557 L40.881,37.65 L42.623,31.783 L87.885,42.659 L87.228,44.263 C82.4,56.054 67.556,63.25 50.481,63.25 Z M38.426,3.336 C21.868,3.336 7.86,10.546 4.428,22.111 C2.338,29.154 4.475,36.8 10.445,43.641 C16.529,50.613 25.817,55.879 36.597,58.469 C56.758,63.312 76.753,57.314 83.243,44.772 L83.24,44.771 L82.209,46.384 C74.824,57.939 55.648,63.007 36.609,58.43 C14.546,53.129 0.148,36.845 4.515,22.132 C6.654,14.924 12.894,9.19 22.086,5.987 C31.088,2.849 41.871,2.521 52.447,5.063 C62.967,7.591 72.016,12.626 78.08,19.301 C78.088,19.298 78.096,19.295 78.105,19.292 C72.069,12.669 62.852,7.52 52.459,5.023 C47.699,3.878 42.967,3.336 38.426,3.336 Z" id="Shape"></path>
            </g>
        </g>
    </g>
</svg>