<?xml version="1.0" encoding="UTF-8"?>
<svg width="146px" height="32px" viewBox="0 0 146 32" version="1.1" xmlns="http://www.w3.org/2000/svg" xmlns:xlink="http://www.w3.org/1999/xlink">
    <!-- Generator: Sketch 48.2 (47327) - http://www.bohemiancoding.com/sketch -->
    <title>logo-fintech_2</title>
    <desc>Created with Sketch.</desc>
    <defs></defs>
    <g id="Desktop-HD-Copy-2" stroke="none" stroke-width="1" fill="none" fill-rule="evenodd" transform="translate(-1018.000000, -459.000000)">
        <g id="logo-fintech_2" transform="translate(1018.000000, 459.000000)" fill="#FFFFFF" fill-rule="nonzero">
            <path d="M46.6855469,27 L42.515625,27 L42.515625,7.01171875 L53.9726562,7.01171875 L53.9726562,10.484375 L46.6855469,10.484375 L46.6855469,15.6386719 L53.4667969,15.6386719 L53.4667969,19.0976562 L46.6855469,19.0976562 L46.6855469,27 Z M57.3769531,7.76367188 C57.3769531,6.40559217 58.133456,5.7265625 59.6464844,5.7265625 C61.1595128,5.7265625 61.9160156,6.40559217 61.9160156,7.76367188 C61.9160156,8.41081053 61.7268899,8.91438622 61.3486328,9.27441406 C60.9703757,9.6344419 60.4029986,9.81445312 59.6464844,9.81445312 C58.133456,9.81445312 57.3769531,9.13086621 57.3769531,7.76367188 Z M61.7246094,27 L57.5546875,27 L57.5546875,11.7148438 L61.7246094,11.7148438 L61.7246094,27 Z M80.2089844,27 L76.0390625,27 L76.0390625,18.0722656 C76.0390625,16.9693955 75.8431009,16.1422554 75.4511719,15.5908203 C75.0592428,15.0393853 74.4349001,14.7636719 73.578125,14.7636719 C72.4114525,14.7636719 71.568362,15.1533164 71.0488281,15.9326172 C70.5292943,16.711918 70.2695312,18.0038972 70.2695312,19.8085938 L70.2695312,27 L66.0996094,27 L66.0996094,11.7148438 L69.2851562,11.7148438 L69.8457031,13.6699219 L70.078125,13.6699219 C70.5429711,12.9316369 71.1832642,12.3733743 71.9990234,11.9951172 C72.8147827,11.6168601 73.7421823,11.4277344 74.78125,11.4277344 C76.5586026,11.4277344 77.9075475,11.9085238 78.828125,12.8701172 C79.7487025,13.8317105 80.2089844,15.219392 80.2089844,17.0332031 L80.2089844,27 Z M92.5410156,27 L88.3027344,27 L88.3027344,10.5390625 L82.875,10.5390625 L82.875,7.01171875 L97.96875,7.01171875 L97.96875,10.5390625 L92.5410156,10.5390625 L92.5410156,27 Z M107.046875,14.3945312 C106.162756,14.3945312 105.470055,14.6748019 104.96875,15.2353516 C104.467445,15.7959012 104.180339,16.5911407 104.107422,17.6210938 L109.958984,17.6210938 C109.940755,16.5911407 109.671878,15.7959012 109.152344,15.2353516 C108.63281,14.6748019 107.930994,14.3945312 107.046875,14.3945312 Z M107.634766,27.2734375 C105.173816,27.2734375 103.250658,26.5944078 101.865234,25.2363281 C100.479811,23.8782484 99.7871094,21.9550906 99.7871094,19.4667969 C99.7871094,16.9055862 100.427402,14.9254627 101.708008,13.5263672 C102.988613,12.1272717 104.759103,11.4277344 107.019531,11.4277344 C109.179698,11.4277344 110.861322,12.0429626 112.064453,13.2734375 C113.267584,14.5039124 113.869141,16.2037652 113.869141,18.3730469 L113.869141,20.3964844 L104.011719,20.3964844 C104.057292,21.5813861 104.4082,22.5065071 105.064453,23.171875 C105.720706,23.8372429 106.64127,24.1699219 107.826172,24.1699219 C108.746749,24.1699219 109.617183,24.0742197 110.4375,23.8828125 C111.257817,23.6914053 112.114579,23.3860698 113.007813,22.9667969 L113.007813,26.1933594 C112.278642,26.5579445 111.499353,26.8291007 110.669922,27.0068359 C109.840491,27.1845712 108.828782,27.2734375 107.634766,27.2734375 Z M123.466797,27.2734375 C118.708961,27.2734375 116.330078,24.6621355 116.330078,19.4394531 C116.330078,16.8417839 116.977207,14.8571032 118.271484,13.4853516 C119.565762,12.1135999 121.420561,11.4277344 123.835938,11.4277344 C125.604176,11.4277344 127.190097,11.7740851 128.59375,12.4667969 L127.363281,15.6933594 C126.707028,15.4290351 126.096357,15.2125659 125.53125,15.0439453 C124.966143,14.8753247 124.401044,14.7910156 123.835938,14.7910156 C121.666656,14.7910156 120.582031,16.3313648 120.582031,19.4121094 C120.582031,22.4017077 121.666656,23.8964844 123.835938,23.8964844 C124.638025,23.8964844 125.380856,23.7893891 126.064453,23.5751953 C126.74805,23.3610015 127.431637,23.0260439 128.115234,22.5703125 L128.115234,26.1386719 C127.440752,26.5670594 126.759444,26.8632804 126.071289,27.0273438 C125.383135,27.1914071 124.514979,27.2734375 123.466797,27.2734375 Z M145.765625,27 L141.595703,27 L141.595703,18.0722656 C141.595703,15.8665254 140.775399,14.7636719 139.134766,14.7636719 C137.968093,14.7636719 137.125003,15.1601523 136.605469,15.953125 C136.085935,16.7460977 135.826172,18.0312411 135.826172,19.8085938 L135.826172,27 L131.65625,27 L131.65625,5.7265625 L135.826172,5.7265625 L135.826172,10.0605469 C135.826172,10.3977881 135.794271,11.190749 135.730469,12.4394531 L135.634766,13.6699219 L135.853516,13.6699219 C136.783208,12.1751227 138.259756,11.4277344 140.283203,11.4277344 C142.078785,11.4277344 143.441402,11.9108025 144.371094,12.8769531 C145.300786,13.8431038 145.765625,15.2285066 145.765625,17.0332031 L145.765625,27 Z" id="FinTech"></path>
            <g id="1469727176_94">
                <g id="Livello_1">
                    <g id="Livello_110">
                        <path d="M16.9664387,11.6364263 C16.9664387,14.4470213 14.6724597,16.7272623 11.842702,16.7272623 C9.01254141,16.7272623 6.71896528,14.4470213 6.71896528,11.6364263 C6.71896528,8.82502711 9.01294426,6.54559032 11.842702,6.54559032 C14.6730639,6.54538927 16.9664387,8.82482606 16.9664387,11.6364263 M23.7739363,11.6364263 C23.7739363,5.2096817 18.530786,0 12.0623079,0 C5.59429032,0 0.350679612,5.2096817 0.350679612,11.6364263 C0.350679612,14.4620709 1.36537894,17.0528961 3.05155693,19.0681611 L12.0724365,32 L21.2252178,18.8795244 C21.5539362,18.4707732 21.8550312,18.0399647 22.1266612,17.5870987 L22.2191996,17.4552139 L22.2040067,17.4552139 C23.2007509,15.7425488 23.7739363,13.7569235 23.7739363,11.6364263" id="Shape"></path>
                    </g>
                </g>
            </g>
        </g>
    </g>
</svg>